<svg xmlns="http://www.w3.org/2000/svg" viewBox="0 0 32 32">
  <circle cx="16" cy="16" r="16" fill="#2D374B"/>
  <path fill="#28A0F0" d="M16.62 21.796l2.065 5.652.926-.537-2.378-6.507-.613 1.392z"/>
  <path fill="#28A0F0" d="M21.387 18.174l-4.766-7.628-.613 1.392 4.153 6.773.926-.537h.3z"/>
  <path fill="#FFF" d="M11.17 10.546l4.766 7.628.613-1.392-4.153-6.773-.926.537h-.3z"/>
  <path fill="#FFF" d="M15.38 21.796l-2.065 5.652-.926-.537 2.378-6.507.613 1.392z"/>
  <path fill="#96BEDC" d="M16 4.5c6.351 0 11.5 5.149 11.5 11.5S22.351 27.5 16 27.5 4.5 22.351 4.5 16 9.649 4.5 16 4.5m0-2C8.544 2.5 2.5 8.544 2.5 16S8.544 29.5 16 29.5 29.5 23.456 29.5 16 23.456 2.5 16 2.5z"/>
</svg>
