<svg xmlns="http://www.w3.org/2000/svg" viewBox="0 0 32 32">
  <circle cx="16" cy="16" r="16" fill="#FF0420"/>
  <path fill="#FFF" d="M10.904 20.596c-1.093 0-1.972-.292-2.636-.876-.656-.592-.984-1.4-.984-2.424 0-.64.12-1.26.36-1.86.248-.608.6-1.14 1.056-1.596.456-.464.996-.828 1.62-1.092.632-.264 1.328-.396 2.088-.396 1.092 0 1.968.292 2.628.876.66.576.99 1.364.99 2.364 0 .656-.12 1.288-.36 1.896-.24.6-.588 1.132-1.044 1.596-.448.464-.984.828-1.608 1.092-.624.28-1.316.42-2.076.42h-.034zm.216-2.004c.4 0 .768-.096 1.104-.288.336-.2.608-.468.816-.804.216-.336.324-.716.324-1.14 0-.44-.128-.788-.384-1.044-.256-.264-.616-.396-1.08-.396-.4 0-.768.1-1.104.3-.328.192-.596.46-.804.804-.208.336-.312.712-.312 1.128 0 .448.128.8.384 1.056.264.256.628.384 1.092.384h-.036zm6.396 1.848V13.78h2.232l.132 1.032c.288-.376.652-.668 1.092-.876.448-.216.948-.324 1.5-.324 1.024 0 1.772.32 2.244.96.48.632.72 1.524.72 2.676 0 .48-.04.996-.12 1.548-.072.544-.152.992-.24 1.344h-2.28c.096-.32.18-.716.252-1.188.072-.48.108-.936.108-1.368 0-.544-.096-.96-.288-1.248-.184-.288-.504-.432-.96-.432-.368 0-.7.088-.996.264-.288.168-.532.404-.732.708v3.564h-2.664z"/>
</svg>
