<svg xmlns="http://www.w3.org/2000/svg" viewBox="0 0 32 32">
  <defs>
    <linearGradient id="solana-grad" x1="0%" y1="0%" x2="100%" y2="100%">
      <stop offset="0%" style="stop-color:#00FFA3"/>
      <stop offset="100%" style="stop-color:#DC1FFF"/>
    </linearGradient>
  </defs>
  <circle cx="16" cy="16" r="16" fill="#000"/>
  <g transform="translate(6, 8)">
    <path fill="url(#solana-grad)" d="M3.5 12.5c.2-.2.4-.3.7-.3h14.5c.4 0 .6.5.3.8l-2.8 2.8c-.2.2-.4.3-.7.3H1c-.4 0-.6-.5-.3-.8l2.8-2.8z"/>
    <path fill="url(#solana-grad)" d="M3.5.3c.2-.2.4-.3.7-.3h14.5c.4 0 .6.5.3.8L16.2 3.6c-.2.2-.4.3-.7.3H1c-.4 0-.6-.5-.3-.8L3.5.3z"/>
    <path fill="url(#solana-grad)" d="M16.2 6.3c-.2-.2-.4-.3-.7-.3H1c-.4 0-.6.5-.3.8l2.8 2.8c.2.2.4.3.7.3h14.5c.4 0 .6-.5.3-.8l-2.8-2.8z"/>
  </g>
</svg>
